<?xml version="1.0" encoding="iso-8859-1"?>
<!-- Generator: Adobe Illustrator 19.0.0, SVG Export Plug-In . SVG Version: 6.00 Build 0)  -->
<svg version="1.1" id="Capa_1" xmlns="http://www.w3.org/2000/svg" xmlns:xlink="http://www.w3.org/1999/xlink" x="0px" y="0px"
	 viewBox="0 0 512.002 512.002" style="enable-background:new 0 0 512.002 512.002;" xml:space="preserve">
<path style="fill:#333333;" d="M62.683,62.698c2.926,6.24,2.501,14.464,3.922,21.245c2.035,9.71,2.947,19.568,4.818,29.294
	c1.325,6.887-0.393,22.378,6.18,26.945c5.299,3.68,14.363-2.236,19.245-4.351c7.01-3.036,13.682-6.033,20.99-8.222
	c19.197-5.751,36.8-13.826,56.503-17.814c21.388-4.329,42.096-10.302,63.869-13.54c16.265-2.419,32.764-4.375,49.154-5.773
	c15.048-1.283,30.163-1.432,45.256-1.251c5.199,0.062,10.431,1.536,15.64,1.176c7.042-0.487,7.609-1.731,8.557,6.132
	c0.77,6.384,4.964,12.521,6.957,18.657c1.368,4.212,2.262,8.51,3.641,12.735c0.787,2.409,1.125,7.781,2.616,9.71
	c1.9,2.459,3.821,1.386,6.598,0.94c12.337-1.981,24.687-4.018,37.057-5.936c8.629-1.338,17.251-2.694,25.891-3.967
	c4.095-0.604,8.687-0.525,12.271-2.851c5.412-3.513,3.846-8.026,2.628-13.715c-2.885-13.485-5.663-26.938-8.452-40.429
	c-1.432-6.926-1.729-17.079-10.126-18.978c-5.951-1.346-13.302,0.767-19.143,2.198c-12.844,3.148-25.564,7.112-38.346,10.578
	c-6.242,1.693-12.757,3.563-19.292,2.824c-8.209-0.928-9.527-3.313-11.826-10.542c-4.104-12.906-8.548-26.17-16.484-37.301
	c-12.876-18.063-46.56-14.224-65.673-13.214c-38.691,2.045-76.433,18.707-113.965,26.923c-18.414,4.031-35.868,10.365-53.895,15.522
	C84.862,53.244,76.151,56.125,62.683,62.698z"/>
<path style="fill:#E24242;" d="M92.985,243.136c11.891-9.841,27.306-17.507,42.22-21.559c22.58-6.136,44.941-12.954,67.499-19.17
	c13.196-3.636,26.059-7.244,39.483-9.833c8.566-1.652,17.487-2.882,26.099-2.87c8.539,0.011,16.887-2.406,25.448-2.419
	c8.343-0.012,16.755,0.53,25.096,0.912c10.607,0.486,21.263,2.17,31.87,2.938c4.019,0.291,7.849,2.261,11.785,2.525
	c2.755,0.185,5.259-0.768,8.067-0.732c5.911,0.076,10.022,3.109,11.694,8.836c3.321,11.374,4.011,24.577,4.946,36.317
	c0.371,4.659,0.229,5.762,4.839,6.83c3.625,0.84,7.862,0.343,11.521-0.114c15.072-1.884,29.963-4.514,44.891-7.485
	c7.175-1.428,20.962-0.971,24.946-7.371c2.201-3.537,2.248-8.349,1.817-12.258c-1.022-9.284-2.383-18.64-4.924-27.589
	c-2.516-8.858-4.438-17.26-7.7-25.922c-2.474-6.571-4.728-14.039-5.916-20.923c-0.742-4.298-2.175-8.405-3.065-12.585
	c-0.82-3.854,0.582-3.974-4.049-3.981c-6.079-0.009-12.036,3.304-17.834,4.749c-8.675,2.162-17.465,3.951-26.285,5.386
	c-6.467,1.052-12.926,2.13-19.313,3.291c-1.934,0.352-3.848,1.378-5.853,0.934c-6.539-1.449-6.632-6.596-7.551-12.163
	c-1.154-6.992-2.486-13.974-4.532-20.767c-2.441-8.102-6.291-13.534-14.279-16.588c-13.16-5.032-30.355-3.294-44.097-2.726
	c-12.614,0.521-25.226,1.576-37.833,2.176c-7.435,0.354-15.788-0.59-22.917,1.942c-7.51,2.667-15.079,4.023-23.03,5.646
	c-5.168,1.054-10.092,0.424-15.306,1.603c-6.109,1.381-11.98,3.634-18.004,5.321c-7.296,2.044-14.569,4.161-21.881,6.059
	c-14.286,3.708-28.873,7.301-42.846,12.229c-12.994,4.582-25.62,10.188-38.508,15.135c-4.815,1.848-10.868,2.477-13.11,7.744
	c-2.488,5.844,1.224,13.293,2.541,19.014c3.081,13.388,8.09,26.148,9.674,39.827C89.911,216.945,90.817,230.761,92.985,243.136z"/>
<path style="fill:#FFC94E;" d="M105.849,318.247c2.856,6.843,8.745,2.637,14.481,1.067c31.472-8.618,62.761-18.624,95.02-24.284
	c27.418-4.811,54.605-11.717,82.566-11.434c10.282,0.104,20.406,1.821,30.662,2.761c8.617,0.789,16.849,4.543,25.41,5.174
	c5.301,0.391,11.984-4.977,15.743,1.828c3.161,5.722-3.332,8.8-7.587,10.81c-18.94,8.948-35.129,19.123-51.569,32.2
	c-7.771,6.181-16.558,12.138-18.171,22.648c-2.412,15.724,26.954,8.015,34.676,6.829c27.582-4.239,54.29-12.445,81.73-17.33
	c11.55-2.056,23.758-4.798,35.063-7.941c10.857-3.019,22.227-5.621,32.016-11.391c12.868-7.585,12.481-25.809,12.448-38.953
	c-0.039-15.503-3.062-33.838-8.684-48.312c-2.521-6.49-6.228-5.922-12.746-5.411c-12.228,0.959-24.367,4.443-36.432,6.542
	c-10.366,1.803-21.632,5.118-32.221,3.725c-7.002-0.921-7.959-3.882-8.418-10.342c-0.721-10.164-4.731-19.535-7.042-29.366
	c-2.207-9.387-8.9-11.695-17.921-14.073c-15.23-4.014-32.743-4.894-48.376-4.387c-17.117,0.556-34.786-0.294-51.791,1.853
	c-15.59,1.969-30.096,6.376-45.181,10.812c-32.929,9.683-68.145,11.97-99.493,26.572c-5.031,2.344-9.978,4.949-14.967,7.387
	c-2.436,1.19-6.809,2.384-8.57,4.496c-2.772,3.326-1.108,9.289-0.871,13.257c0.717,12.01,5.409,23.388,6.746,35.329
	C103.475,298.157,101.952,308.913,105.849,318.247z"/>
<g>
	<path style="fill:#F2AE40;" d="M285.166,299.867c1.22,3.135,0.319,7.576,0.43,10.996c0.203,6.298,0.45,12.553,0.45,18.875
		c0,3.848-1.759,19.145,2.607,21.515c5.871,3.187,20.206-11.166,23.779-14.015c9.885-7.882,20.828-14.307,31.661-20.661
		c5.387-3.16,33.291-16.261,22.88-23.844c-5.143-3.746-14.773-3.205-21.036-2.883c-12.136,0.624-24.584,0.953-36.67-0.44
		c-5.403-0.623-14.299-2.79-19.7-0.976C284.31,290.2,287.34,297.295,285.166,299.867z"/>
	<path style="fill:#F2AE40;" d="M104.419,313.5c-0.928-1.604-0.411-4.898-0.436-7.052c-0.07-6.019-0.577-12.067-1.215-18.057
		c-0.989-9.29-3.298-17.804-5.551-26.805c-1.691-6.751-5.745-16.28,0.144-21.088c6.229-5.086,15.219-7.874,22.646-10.716
		c9.32-3.566,18.952-6.256,28.379-9.514c12.266-4.238,25.413-7.981,38.055-10.999c5.936-1.417,17.533-7.285,20.115-0.038
		c2.52,7.072,1.867,11.855,8.662,16.935c7.68,5.741,17.516,9.138,26.587,11.928c9.375,2.883,19.141,4.727,28.781,6.467
		c13.648,2.464,27.579,3.626,41.415,4.913c18.173,1.69,37.053,1.057,55.021,4.61c12.387,2.449,27.34,13.719,17.23,27.632
		c-2.447,3.368-9.109,7.979-12.894,9.342c-6.227,2.242-14.262,0.559-20.725,0.452c-12.668-0.211-25.447-2.974-38.019-4.566
		c-36.978-4.683-73.888,4.426-109.784,12.704c-23.41,5.399-46.97,9.905-70.279,15.805
		C128.718,316.425,102.018,324.519,104.419,313.5z"/>
	<path style="fill:#F2AE40;" d="M392.47,251.492c4.711-2.148,8.813-3.225,14.254-3.97c8.126-1.112,12.228,2.122,14.352,10.635
		c2.599,10.414,2.034,22.34,1.178,32.902c-0.975,12.027,1.257,23.922,0.526,35.874c-0.677,11.075-6.331,14.11-15.761,18.649
		c-10.655,5.129-21.922,8.151-33.335,11.089c-22.968,5.913-46.752,6.919-70.15,10.043c-4.307,0.575-11.254,2.56-14.859-1.086
		c-4.743-4.797,0.837-11.887,4.389-15.817c12.887-14.26,31.876-22.637,48.253-32.033c11.997-6.883,22.72-15.938,32.241-25.611
		c4.577-4.65,9.22-8.543,12.48-14.46c2.214-4.019,4.733-8.521,5.782-13.01C392.837,260.36,390.259,254.616,392.47,251.492z"/>
</g>
<path style="fill:#C13636;" d="M206.007,203.117c-8.414-9.025-14.751-21.019-21.657-31.224
	c-9.639-14.243-16.311-28.802-20.903-45.315c-1.945-6.994-2.937-14.546-12.15-12.979c-3.49,0.594-8.255,4.591-11.697,6.281
	c-6.519,3.199-13.052,6.049-19.97,8.256c-9.706,3.096-19.871,5.896-29.249,9.696c-3.195,1.294-7.279,2.376-10.237,4.211
	c-4.238,2.629-3.815,3.182-3.268,6.979c1.168,8.112,5.273,15.814,6.785,23.901c1.746,9.341,3.883,18.674,5.395,28.063
	c1.231,7.645,2.411,15.491,2.952,23.209c0.272,3.873-0.294,10.652,3.606,12.825c3.481,1.939,8.728-0.684,11.827-1.895
	c8.75-3.417,17.831-6.327,26.823-9.019c12.314-3.686,24.088-9.268,36.206-13.53c5.456-1.919,11.172-3.123,16.631-5.017
	C192.697,205.618,198.533,201.129,206.007,203.117z"/>
<g>
	<path style="fill:#2B2B2B;" d="M119.811,44.799c-2.711-0.218-4.961,1.375-7.469,2.209c-5.728,1.906-11.459,3.907-17.256,5.73
		c-9.11,2.863-18.566,4.522-27.277,8.654c-7.367,3.495-4.341,11.229-3.09,18.139c2.153,11.891,3.993,23.841,6.29,35.687
		c1.031,5.316,2.582,10.516,3.637,15.843c0.426,2.151,0.276,7.908,2.155,9.518c4.355,3.732,16.753-2.259,21.183-3.441
		c12.562-3.354,24.94-9.486,37.171-14.046c4.981-1.857,18.641-4.665,19.331-11.401c0.323-3.155-3.509-10.362-4.751-13.027
		c-3.522-7.554-6.914-15.084-9.974-22.858C136.924,68.595,133.422,40.725,119.811,44.799z"/>
	<path style="fill:#2B2B2B;" d="M356.409,74.704c2.664,6.521,3.222,14.921,4.815,21.868c1.996,8.705,4.815,17.22,6.52,25.978
		c1.771,9.101-0.063,20.211,12.501,17.68c8.52-1.716,21.968-1.971,23.189-12.989c0.893-8.06-6.105-15.81-9.548-22.515
		C389,95.21,383.678,85.977,376.299,78.152c-2.574-2.729-4.708-6.727-8.629-7.413C366.114,70.466,355.788,73.181,356.409,74.704z"/>
</g>
<path style="fill:#C13636;" d="M381.036,185.086c3.309,7.152,2.523,18.572,3.627,26.484c1.188,8.512,2.826,16.3,5.301,24.442
	c0.916,3.013,0.814,6.684,3.815,8.345c2.86,1.584,10.403,1.423,13.622,0.901c6.454-1.046,12.467-3.026,15.413-9.061
	c3.743-7.668,2.387-20.083,1.243-28.552c-1.91-14.136-6.362-27.955-9.607-41.815c-1.837-7.848-3.882-18.254-7.576-25.365
	c-2.767-5.327-7.345-3.774-12.623-1.908c-7.09,2.506-14.473,3.337-21.525,5.282c1.138,4.193,1.545,8.757,2.155,13.103
	C375.896,164.162,379.394,172.045,381.036,185.086z"/>
<path style="fill:#CAD6DD;" d="M31.417,25.889c-7.04,6.796-11.558,21.423-5.243,29.687c4.248,5.559,11.984,5.002,14.644,10.798
	c2.346,5.113,2.106,11.301,2.803,16.775c1.76,13.823,5.196,27.076,7.243,40.811c2.643,17.733,5.68,35.453,7.38,53.321
	c1.385,14.562,2.471,29.155,4.242,43.678c0.708,5.805,1.971,10.395,3.757,15.762c2.102,6.317,1.479,13.791,2.117,20.358
	c1.171,12.064,2.604,24.08,3.956,36.116c2.482,22.085,6.559,43.874,8.147,66.097c1.438,20.13,5.975,39.2,9.003,59.099
	c2.622,17.229,5.596,34.367,8.454,51.557c1.467,8.824,6.303,46.78,22.765,36.152c9.187-5.931,10.009-15.709,9.7-25.724
	c-0.666-21.6-6.688-43.907-11.024-64.975c-4.928-23.943-8.726-48.272-12.528-72.413c-2.017-12.807-4.563-25.469-6.8-38.233
	c-3.217-18.358-4.863-37.381-4.85-55.915c0.007-10.177-0.076-20.272-2.297-30.264c-6.809-30.644-15.39-60.52-19.89-91.655
	c-1.826-12.631-4.785-25.252-7.4-37.74c-2.367-11.306-5.538-22.474-1.051-33.696c4.872-12.183,8.576-22.766-3.774-32.209
	C52.193,16.716,43.144,17.76,31.417,25.889z"/>
<path style="fill:#A6B3BD;" d="M37.574,23.69c-0.593,9.86,6.172,18.83,10.234,27.276c2.593,5.391,2.571,8.447,2.662,14.162
	c0.09,5.714,2.123,11.661,3.083,17.302c2.139,12.565,3.572,25.239,5.803,37.79c3.044,17.125,8.914,34.949,10.035,52.173
	c1.201,18.446,4.778,36.291,9.61,54.114c4.933,18.193,6.582,37.45,8.45,56.159c2.721,27.246,6.65,53.614,12.323,80.525
	c4.809,22.809,5.099,46.832,8.77,69.923c2.944,18.514,7.994,36.82,10.541,55.356c0.673,4.899,0.629,18.803-7.079,14.043
	c-12.072-7.455-11.654-30.073-13.839-42.096c-4.372-24.061-9.213-48.022-13.193-72.146c-2.199-13.323-3.57-26.695-5.61-40.031
	c-1.144-7.483-2.564-14.895-3.87-22.359c-1.228-7.015-3.57-13.25-4.582-20.332c-1.101-7.703-1.62-15.475-2.65-23.187
	c-1.361-10.193-2.816-20.383-4.422-30.538c-3.036-19.194-4.841-38.184-6.899-57.498c-2.363-22.169-7.589-43.556-8.911-65.871
	c-0.628-10.593-2.189-21.186-3.101-31.761c-0.716-8.299,0.388-17.425-2.794-25.326c-2.332-5.792-3.819-3.858-8.866-4.432
	c-4.997-0.568-6.45-4.316-8.19-8.5C20.105,46.478,22.11,33.959,37.574,23.69z"/>
<path d="M493.905,279.415c-2.019-14.168-5.084-28.717-9.151-42.398c-4.195-14.115-5.61-29.128-8.438-43.644
	c-5.951-30.544-11.737-61.137-19.066-91.389c-1.973-8.144-4.384-16.202-6.273-24.362c-1.187-5.127-1.582-10.41-2.698-15.554
	c-1.011-4.657-2.476-9.876-6.199-13.118c-3.879-3.377-9.246-3.201-14.009-2.389c-10.662,1.818-20.479,6.871-31.151,8.922
	c-13.656,2.624-27.655,3.809-40.867,8.087c-2.705-8.186-5.635-16.302-9.066-24.168c-4.057-9.303-9.361-18.385-16.897-25.313
	c-19.124-17.58-46.393-15.353-70.15-11.066c-17.623,3.18-34.951,7.855-52.523,11.309c-17.86,3.51-35.504,8.051-52.982,13.115
	c-17.513,5.074-34.871,10.695-52.172,16.449c-8.001,2.661-15.902,5.568-23.846,8.388c-3.311,1.175-6.573,2.291-9.701,3.666
	c0.398-0.607,0.776-1.253,1.127-1.954c2.647-5.29,3.894-11.408,3.319-17.306c-1.239-12.687-10.815-21.719-23.528-22.523
	c-13.628-0.863-25.534,8.85-30.65,20.923c-3,7.08-3.33,14.296,0.608,21.107c3.304,5.714,9.237,12.176,15.887,13.785
	c0.614,0.149,1.234,0.243,1.857,0.312c2.237,7.399,2.318,15.397,3.07,23.043c0.969,9.854,2.23,19.664,3.502,29.482
	c2.476,19.106,5.642,38.113,8.082,57.223c2.436,19.082,3.128,38.3,6.259,57.296c3.129,18.987,6.523,37.821,8.922,56.925
	c2.411,19.2,4.362,38.492,7.186,57.636c2.827,19.163,6.427,38.183,9.115,57.371c2.566,18.314,5.921,36.471,8.746,54.738
	c2.091,13.52,3.135,32.83,14.1,42.619c7.433,6.636,19.807,8.106,25.822-1.228c3.899-6.051,3.319-13.863,2.66-20.702
	c-0.861-8.94-2.844-17.693-4.455-26.513c-3.4-18.61-4.368-37.688-7.334-56.395c-2.997-18.909-6.197-37.772-8.924-56.725
	c-0.8-5.56-1.579-11.123-2.349-16.688c27.81-10.12,56.681-16.1,85.656-21.946c26.873-5.422,53.782-11.405,81.098-14.033
	c0.198,3.374,0.893,6.814,1.287,9.965c0.756,6.054,1.365,12.116,1.761,18.205c0.422,6.487,0.336,12.882,0.354,19.372
	c0.018,6.744,0.202,13.613,1.619,20.232c1.097,5.125,3.336,9.111,8.39,11.205c9.172,3.801,20.23,1.664,29.675,0.236
	c18.25-2.759,36.229-7.721,54.331-11.267c30.663-6.006,61.779-10.53,91.371-20.843c5.396-1.881,10.99-3.55,15.621-7.016
	c5.044-3.775,7.796-9.058,9.625-14.988C496.312,305.207,495.697,291.986,493.905,279.415z M451.059,129.697
	c7.39,33.878,13.461,68.046,20.53,101.997c-2.971,0.559-5.97,0.98-8.969,1.34c-7.669,0.921-15.377,1.505-22.985,2.885
	c-13.991,2.537-29.396,3.324-42.913,8.33c-1.073-8.447-2.839-16.839-4.396-25.154c-2.859-15.266-5.419-30.585-8.384-45.833
	c-1.956-10.06-4.04-20.099-6.255-30.11c4.736,0.851,10.16-0.361,14.621-1.103c7.735-1.287,15.344-3.121,23.012-4.737
	c7.093-1.495,14.253-2.639,21.358-4.066C440.646,132.45,446.811,131.95,451.059,129.697z M392.827,68.483
	c9.714-1.657,18.523-4.206,27.785-7.365c3.601-1.228,7.412-2.562,11.232-2.825c0.644-0.044,1.479-0.101,2.122-0.006
	c0.084,0.013,0.151,0.031,0.219,0.05c0.936,1.233,1.318,3.076,1.696,4.493c1.12,4.195,1.671,8.524,2.347,12.804
	c0.851,5.39,2.395,10.565,3.768,15.843c2.647,10.169,5.088,20.383,7.39,30.627c-4.346,0.19-9.125,2.265-13.043,3.086
	c-7.099,1.487-14.265,2.63-21.37,4.089c-7.328,1.504-14.558,3.419-21.865,5.01c-5.096,1.11-11.531,1.303-16.652,3.317
	c-4.332-19.071-9.224-38.014-14.941-56.716c-0.593-1.941-1.191-3.885-1.793-5.829C370.609,72.168,381.696,70.382,392.827,68.483z
	 M368.665,157.981c2.205,10.682,4.409,21.411,6.518,32.168c-12.413-4.552-26.482-5.15-39.399-6.138
	c-20.602-1.576-41.343-0.34-61.803,2.321c-39.843,5.182-79.732,14.6-118.005,26.778c-10.775,3.429-21.427,7.216-31.906,11.468
	c-8.316,3.374-16.901,6.79-24.668,11.428c-0.245-1.793-0.481-3.587-0.728-5.38c-2.629-19.09-5.629-38.148-9.791-56.971
	c-2.091-9.457-4.215-18.89-6.257-28.34c5.408-2.814,11.49-5.022,16.909-7.065c7.94-2.995,15.933-5.855,23.9-8.779
	c18.313-6.72,36.717-13.292,55.639-18.112c38.761-9.874,78.539-15.931,118.479-18.03c18.71-0.983,37.523-2.203,55.891,1.709
	C359.339,115.806,364.3,136.839,368.665,157.981z M81.077,61.934c7.38-2.33,14.658-4.985,22.022-7.369
	c14.78-4.785,29.622-9.392,44.516-13.81c14.547-4.315,29.189-8.325,43.975-11.744c14.597-3.377,29.363-5.914,43.969-9.256
	c15.014-3.435,30.107-7.121,45.525-8.108c11.303-0.724,23.236-0.425,33.386,5.198c12.202,6.76,18.763,18.769,23.459,31.419
	c2.286,6.157,4.15,12.462,6.412,18.628c0.896,2.444,5.415,19.096,6.543,19.348c-14.213-3.177-30.145-1.47-44.187-0.898
	c-20.296,0.826-40.534,2.779-60.639,5.665c-40.711,5.844-80.205,15.85-118.796,30.018c-9.822,3.606-19.745,7.046-29.46,10.933
	c-4.113,1.646-8.201,3.402-12.139,5.435c-1.522,0.786-2.882,1.667-4.168,2.616c-1.649-7.771-3.233-15.559-4.68-23.387
	c-1.735-9.385-3.403-18.783-5.112-28.174c-0.746-4.104-1.686-8.209-2.124-12.359c-0.337-3.195-0.493-6.472-1.263-9.604
	C72.346,64.463,76.774,63.293,81.077,61.934z M35.157,57.814c-6.693-5.293-9.561-11.971-6.004-19.982
	c2.663-5.996,7.678-11.358,14.093-13.245c13.615-4.006,22.81,7.563,19.272,20.319c-0.771,2.781-1.992,5.698-4.142,7.691
	c-1.695,1.571-3.828,2.672-5.926,3.793C47.008,57.704,40.066,61.696,35.157,57.814z M116.373,434.232
	c1.053,9.306,1.84,18.613,3.558,27.83c1.75,9.393,4.085,18.796,4.18,28.399c0.034,3.501,0.296,10.392-4.801,10.261
	c-5.034-0.129-8.067-5.54-9.576-9.594c-2.954-7.934-4.372-16.393-5.694-24.722c-1.43-9.008-3.046-17.971-4.58-26.962
	c-3.312-19.4-5.528-38.969-8.94-58.35c-3.472-19.718-6.621-39.331-9.115-59.201c-2.405-19.16-4.472-38.434-7.67-57.481
	c-3.292-19.601-7.193-38.87-8.709-58.723c-2.98-39.059-11.022-77.587-16.631-116.303c-0.978-6.753-1.823-13.267-4.377-19.511
	c2.575-0.509,5.139-1.303,7.61-2.015c0.558-0.04,1.14-0.192,1.736-0.486c0.359-0.096,0.715-0.189,1.069-0.277
	c1.277-0.316,1.851-0.667,2.681,0.13c1.138,1.093,1.147,5.019,1.286,6.435c0.385,3.944,0.896,7.795,1.614,11.695
	c3.583,19.458,6.912,38.966,10.889,58.35c3.955,19.28,8.891,38.31,12.257,57.714c3.332,19.204,5.824,38.537,8.303,57.866
	c5.021,39.132,10.166,78.179,16.304,117.143C110.799,395.692,114.178,414.849,116.373,434.232z M198.866,293.6
	c-29.97,6.101-59.965,12.021-88.859,22.156c-3.315-24.505-6.455-49.034-9.764-73.54c7.501-2.768,14.769-6.256,22.173-9.232
	c8.971-3.606,18.079-6.871,27.252-9.926c18.319-6.101,36.974-11.145,55.756-15.602c38.517-9.139,77.955-17.026,117.732-15.981
	c9.762,0.256,19.553,1.07,29.253,2.199c8.355,0.973,17.031,2.386,24.641,6.14c2.708,14.267,5.201,28.573,7.258,42.875
	c1.583,11.007,3.491,25.732-2.947,35.627c-4.127,6.344-11.513,7.358-18.534,7.078c-8.602-0.343-16.974-2.617-25.404-4.161
	c-12.816-2.347-26.017-2.787-39.015-2.42C264.778,279.762,231.713,286.914,198.866,293.6z M293.692,342.898
	c-0.069-2.631-0.085-5.263-0.092-7.887c-0.02-6.765-0.425-13.466-1.082-20.207c-0.667-6.846-0.86-15.883-3.307-23.255
	c1.089-0.067,2.176-0.143,3.267-0.197c13.794-0.687,28.054-0.77,41.688,1.699c9.148,1.656,18.221,3.964,27.538,4.491
	c0.661,0.037,1.325,0.06,1.99,0.074c-1.017,0.619-2.037,1.231-3.06,1.833c-12.649,7.438-25.248,14.857-37.536,22.887
	c-9.174,5.994-18.922,11.346-27.223,18.563C295.161,341.518,294.428,342.187,293.692,342.898z M473.452,324.485
	c-4.482,2.443-9.686,3.842-14.496,5.514c-6.945,2.414-14.01,4.48-21.15,6.237c-14.038,3.455-28.283,6.154-42.452,9.005
	c-20.941,4.213-41.724,8.97-62.571,13.583c-6.478,1.434-13.037,2.693-19.644,3.341c-5.109,0.502-11.906,1.224-16.316-0.779
	c-0.098-0.045-0.183-0.091-0.263-0.138c-0.149-0.515-0.309-1.031-0.474-1.546c0.011-0.05,0.019-0.092,0.032-0.146
	c1.179-4.679,5.529-8.411,9.085-11.359c9.28-7.694,20.351-13.709,30.463-20.236c12.249-7.906,25.198-14.938,37.15-23.27
	c9.177-6.397,16.701-13.585,20.884-23.744c2.9-6.418,3.87-13.858,3.998-20.738c0.06-3.222-0.068-6.437-0.322-9.646
	c15.152-1.467,30.284-4.372,45.249-6.964c8.156-1.413,16.443-1.883,24.639-3.01c1.762-0.242,3.857-0.448,6.034-0.743
	c1.265,5.919,2.558,11.831,3.909,17.731c2.798,12.224,5.604,24.584,5.971,37.169C483.462,304.487,483.172,319.186,473.452,324.485z"
	/>
<g>
</g>
<g>
</g>
<g>
</g>
<g>
</g>
<g>
</g>
<g>
</g>
<g>
</g>
<g>
</g>
<g>
</g>
<g>
</g>
<g>
</g>
<g>
</g>
<g>
</g>
<g>
</g>
<g>
</g>
</svg>
